<svg width="16" height="13" viewBox="0 0 16 13" fill="none" xmlns="http://www.w3.org/2000/svg">
<path d="M6.34766 11.2227L7.07422 10.1445C7.33984 10.4102 7.62891 10.6523 7.94141 10.8711L7.12109 12.0664C6.93359 12.332 6.67578 12.4727 6.34766 12.4883C6.00391 12.4883 5.74609 12.3398 5.57422 12.043L4.61328 10.6367L2.94922 10.9648C2.62109 11.0273 2.33984 10.9414 2.10547 10.707C1.87109 10.4727 1.78516 10.1914 1.84766 9.86328L2.17578 8.22266L0.769531 7.26172C0.503906 7.05859 0.363281 6.80078 0.347656 6.48828C0.363281 6.16016 0.503906 5.88672 0.769531 5.66797L2.17578 4.73047L1.84766 3.06641C1.78516 2.75391 1.87109 2.47266 2.10547 2.22266C2.33984 1.98828 2.62109 1.90234 2.94922 1.96484L4.61328 2.29297L5.57422 0.886719C5.76172 0.621094 6.01953 0.488281 6.34766 0.488281C6.67578 0.488281 6.94141 0.621094 7.14453 0.886719L7.96484 2.10547C7.65234 2.32422 7.36328 2.56641 7.09766 2.83203L6.34766 1.73047L5.10547 3.55859L2.97266 3.13672L3.39453 5.26953L1.58984 6.46484L3.41797 7.70703L2.99609 9.86328L5.12891 9.44141L6.34766 11.2227ZM5.73828 5.33984C5.30078 5.58984 5.06641 5.97266 5.03516 6.48828C5.06641 7.00391 5.30078 7.38672 5.73828 7.63672C5.83203 8.10547 5.98047 8.52734 6.18359 8.90234C5.54297 8.85547 5.00391 8.60547 4.56641 8.15234C4.14453 7.69922 3.92578 7.14453 3.91016 6.48828C3.92578 5.83203 4.14453 5.27734 4.56641 4.82422C5.00391 4.37109 5.54297 4.12109 6.18359 4.07422C5.98047 4.46484 5.83203 4.88672 5.73828 5.33984ZM10.8477 1.98828C12.1133 2.01953 13.168 2.45703 14.0117 3.30078C14.8711 4.16016 15.3164 5.22266 15.3477 6.48828C15.3164 7.76953 14.8711 8.83203 14.0117 9.67578C13.168 10.5195 12.1133 10.957 10.8477 10.9883C9.56641 10.957 8.50391 10.5117 7.66016 9.65234C6.83203 8.79297 6.40234 7.73047 6.37109 6.46484C6.40234 5.19922 6.83984 4.14453 7.68359 3.30078C8.51172 2.45703 9.56641 2.01953 10.8477 1.98828ZM10.8477 9.86328C11.8008 9.83203 12.5977 9.50391 13.2383 8.87891C13.8633 8.23828 14.1914 7.44922 14.2227 6.51172C14.1914 5.55859 13.8555 4.76953 13.2148 4.14453C12.5898 3.50391 11.8008 3.17578 10.8477 3.16016C9.91016 3.17578 9.12109 3.50391 8.48047 4.14453C7.83984 4.76953 7.51172 5.55859 7.49609 6.51172C7.51172 7.44922 7.83984 8.23828 8.48047 8.87891C9.10547 9.50391 9.89453 9.83203 10.8477 9.86328Z" fill="#363636"/>
</svg>
