<svg width="16" height="13" viewBox="0 0 16 13" fill="none" xmlns="http://www.w3.org/2000/svg">
<path d="M6.10156 11.3477L6.82812 10.2695C7.09375 10.5352 7.38281 10.7773 7.69531 10.9961L6.875 12.1914C6.6875 12.457 6.42969 12.5977 6.10156 12.6133C5.75781 12.6133 5.5 12.4648 5.32812 12.168L4.36719 10.7617L2.70312 11.0898C2.375 11.1523 2.09375 11.0664 1.85938 10.832C1.625 10.5977 1.53906 10.3164 1.60156 9.98828L1.92969 8.34766L0.523438 7.38672C0.257812 7.18359 0.117188 6.92578 0.101562 6.61328C0.117188 6.28516 0.257812 6.01172 0.523438 5.79297L1.92969 4.85547L1.60156 3.19141C1.53906 2.87891 1.625 2.59766 1.85938 2.34766C2.09375 2.11328 2.375 2.02734 2.70312 2.08984L4.36719 2.41797L5.32812 1.01172C5.51562 0.746094 5.77344 0.613281 6.10156 0.613281C6.42969 0.613281 6.69531 0.746094 6.89844 1.01172L7.71875 2.23047C7.40625 2.44922 7.11719 2.69141 6.85156 2.95703L6.10156 1.85547L4.85938 3.68359L2.72656 3.26172L3.14844 5.39453L1.34375 6.58984L3.17188 7.83203L2.75 9.98828L4.88281 9.56641L6.10156 11.3477ZM5.49219 5.46484C5.05469 5.71484 4.82031 6.09766 4.78906 6.61328C4.82031 7.12891 5.05469 7.51172 5.49219 7.76172C5.58594 8.23047 5.73438 8.65234 5.9375 9.02734C5.29688 8.98047 4.75781 8.73047 4.32031 8.27734C3.89844 7.82422 3.67969 7.26953 3.66406 6.61328C3.67969 5.95703 3.89844 5.40234 4.32031 4.94922C4.75781 4.49609 5.29688 4.24609 5.9375 4.19922C5.73438 4.58984 5.58594 5.01172 5.49219 5.46484ZM10.6016 2.11328C11.8672 2.14453 12.9219 2.58203 13.7656 3.42578C14.625 4.28516 15.0703 5.34766 15.1016 6.61328C15.0703 7.89453 14.625 8.95703 13.7656 9.80078C12.9219 10.6445 11.8672 11.082 10.6016 11.1133C9.32031 11.082 8.25781 10.6367 7.41406 9.77734C6.58594 8.91797 6.15625 7.85547 6.125 6.58984C6.15625 5.32422 6.59375 4.26953 7.4375 3.42578C8.26562 2.58203 9.32031 2.14453 10.6016 2.11328ZM10.6016 9.98828C11.5547 9.95703 12.3516 9.62891 12.9922 9.00391C13.6172 8.36328 13.9453 7.57422 13.9766 6.63672C13.9453 5.68359 13.6094 4.89453 12.9688 4.26953C12.3438 3.62891 11.5547 3.30078 10.6016 3.28516C9.66406 3.30078 8.875 3.62891 8.23438 4.26953C7.59375 4.89453 7.26562 5.68359 7.25 6.63672C7.26562 7.57422 7.59375 8.36328 8.23438 9.00391C8.85938 9.62891 9.64844 9.95703 10.6016 9.98828Z" fill="#474747"/>
</svg>
