<svg xmlns="http://www.w3.org/2000/svg" xmlns:xlink="http://www.w3.org/1999/xlink" width="260" height="260" viewBox="0 0 260 260">
  <defs>
    <filter id="Elipse_3" x="0" y="0" width="260" height="260" filterUnits="userSpaceOnUse">
      <feOffset dx="-5" dy="20" input="SourceAlpha"/>
      <feGaussianBlur stdDeviation="30" result="blur"/>
      <feFlood flood-color="#2f3b5b" flood-opacity="0.439"/>
      <feComposite operator="in" in2="blur"/>
      <feComposite in="SourceGraphic"/>
    </filter>
  </defs>
  <g id="logo-iteris-mapa" transform="translate(-287 -637)">
    <g id="Icone_Iteris" data-name="Icone Iteris" transform="translate(5 -7)">
      <g transform="matrix(1, 0, 0, 1, 282, 644)" filter="url(#Elipse_3)">
        <circle id="Elipse_3-2" data-name="Elipse 3" cx="40" cy="40" r="40" transform="translate(95 70)" fill="#fff"/>
      </g>
    </g>
    <g id="bumerangues" transform="translate(408 730)">
      <g id="Group" transform="translate(2.508 2.519)">
        <path id="Combined_Shape" data-name="Combined Shape" d="M4.792,17.687c1.743,2.944,6.321,4.831,10.032,5.89,1.573.442,4.742,1.016,4.953,1.047,1.647.3.892,1.142.036,1.083-.2.01-.389.013-.559.01-.594-.009-1.991-.094-2.4-.112C11.509,25.371,3.072,23.82.878,20.113c-1.633-2.759-.76-7.874.762-12.369A42.725,42.725,0,0,1,4.844.578c.5-1.035,1.194-.549.88.431C5.056,3.145,4.9,3.82,4.669,4.7,3.818,8.025,2.649,14.088,4.792,17.687Z" transform="translate(0 3.306)" fill="#ff7200"/>
        <path id="Combined_Shape-2" data-name="Combined Shape" d="M15.96,8.031C14.218,5.087,9.639,3.2,5.928,2.141,4.354,1.7,1.186,1.125.975,1.094-.672.8.084-.047.94.011,1.142,0,1.328,0,1.5,0,2.092.01,3.489.095,3.9.113,9.242.347,17.68,1.9,19.874,5.6c1.633,2.759.76,7.874-.762,12.369a42.725,42.725,0,0,1-3.2,7.167c-.5,1.035-1.194.549-.88-.431.668-2.137.827-2.811,1.054-3.7C16.934,17.693,18.1,11.63,15.96,8.031Z" transform="translate(3.135 0)" fill="#7c7c80"/>
      </g>
    </g>
  </g>
</svg>
