<?xml version="1.0" encoding="UTF-8"?>
<!DOCTYPE svg PUBLIC "-//W3C//DTD SVG 1.1//EN" "http://www.w3.org/Graphics/SVG/1.1/DTD/svg11.dtd">
<svg xmlns="http://www.w3.org/2000/svg" version="1.1" width="300px" height="259px" style="shape-rendering:geometricPrecision; text-rendering:geometricPrecision; image-rendering:optimizeQuality; fill-rule:evenodd; clip-rule:evenodd" xmlns:xlink="http://www.w3.org/1999/xlink">
<g><path style="opacity:1" fill="#41b883" d="M -0.5,-0.5 C 19.5,-0.5 39.5,-0.5 59.5,-0.5C 88.7192,51.603 118.719,103.27 149.5,154.5C 179.749,103.005 209.749,51.3384 239.5,-0.5C 259.5,-0.5 279.5,-0.5 299.5,-0.5C 299.5,0.166667 299.5,0.833333 299.5,1.5C 249.596,86.9676 199.929,172.634 150.5,258.5C 149.833,258.5 149.167,258.5 148.5,258.5C 99.0708,172.634 49.4041,86.9676 -0.5,1.5C -0.5,0.833333 -0.5,0.166667 -0.5,-0.5 Z"/></g>
<g><path style="opacity:1" fill="#35495e" d="M 59.5,-0.5 C 78.1667,-0.5 96.8333,-0.5 115.5,-0.5C 126.407,19.076 137.74,38.4093 149.5,57.5C 161.03,38.4371 172.03,19.1038 182.5,-0.5C 201.5,-0.5 220.5,-0.5 239.5,-0.5C 209.749,51.3384 179.749,103.005 149.5,154.5C 118.719,103.27 88.7192,51.603 59.5,-0.5 Z"/></g>
</svg>
